<svg id="visual" viewBox="0 0 900 600" width="900" height="600" xmlns="http://www.w3.org/2000/svg" xmlns:xlink="http://www.w3.org/1999/xlink" version="1.1"><g stroke-width="1" stroke-linejoin="bevel"><path d="M449.9 312L364.3 285L389.1 344Z" fill="#3a563f" stroke="#3a563f"></path><path d="M297.3 272L367.1 401L389.1 344Z" fill="#46694e" stroke="#46694e"></path><path d="M484.9 432L516.9 368L449.9 312Z" fill="#46694e" stroke="#46694e"></path><path d="M226.5 416L365.3 407L367.1 401Z" fill="#3e5c44" stroke="#3e5c44"></path><path d="M484.9 432L449.9 312L389.1 344Z" fill="#3e5c44" stroke="#3e5c44"></path><path d="M364.3 285L297.3 272L389.1 344Z" fill="#537d5d" stroke="#537d5d"></path><path d="M449.9 312L432.1 179L364.3 285Z" fill="#3a563f" stroke="#3a563f"></path><path d="M364.3 285L370.1 150L297.3 272Z" fill="#46694e" stroke="#46694e"></path><path d="M484.9 432L389.1 344L367.1 401Z" fill="#3a563f" stroke="#3a563f"></path><path d="M449.9 312L524.9 206L432.1 179Z" fill="#3a563f" stroke="#3a563f"></path><path d="M516.9 368L534.7 284L449.9 312Z" fill="#364f3a" stroke="#364f3a"></path><path d="M286.3 170L275.5 261L297.3 272Z" fill="#46694e" stroke="#46694e"></path><path d="M297.3 272L209.5 349L367.1 401Z" fill="#46694e" stroke="#46694e"></path><path d="M516.9 368L550.7 345L534.7 284Z" fill="#2a3d2c" stroke="#2a3d2c"></path><path d="M385.1 467L484.9 432L367.1 401Z" fill="#3e5c44" stroke="#3e5c44"></path><path d="M516.9 368L614.7 427L550.7 345Z" fill="#364f3a" stroke="#364f3a"></path><path d="M226.5 416L363.3 449L365.3 407Z" fill="#537d5d" stroke="#537d5d"></path><path d="M365.3 407L385.1 467L367.1 401Z" fill="#46694e" stroke="#46694e"></path><path d="M578.7 269L524.9 206L534.7 284Z" fill="#4b7053" stroke="#4b7053"></path><path d="M534.7 284L524.9 206L449.9 312Z" fill="#537d5d" stroke="#537d5d"></path><path d="M371.3 97L370.1 150L432.1 179Z" fill="#537d5d" stroke="#537d5d"></path><path d="M432.1 179L370.1 150L364.3 285Z" fill="#426249" stroke="#426249"></path><path d="M363.3 449L385.1 467L365.3 407Z" fill="#4f7658" stroke="#4f7658"></path><path d="M229.5 160L239.5 267L275.5 261Z" fill="#3a563f" stroke="#3a563f"></path><path d="M275.5 261L239.5 267L297.3 272Z" fill="#324935" stroke="#324935"></path><path d="M550.7 345L578.7 269L534.7 284Z" fill="#2e4331" stroke="#2e4331"></path><path d="M370.1 150L286.3 170L297.3 272Z" fill="#537d5d" stroke="#537d5d"></path><path d="M385.1 467L475.9 482L484.9 432Z" fill="#426249" stroke="#426249"></path><path d="M484.9 432L614.7 427L516.9 368Z" fill="#3a563f" stroke="#3a563f"></path><path d="M536.7 123L505.9 130L524.9 206Z" fill="#2e4331" stroke="#2e4331"></path><path d="M524.9 206L505.9 130L432.1 179Z" fill="#4b7053" stroke="#4b7053"></path><path d="M239.5 267L209.5 349L297.3 272Z" fill="#4b7053" stroke="#4b7053"></path><path d="M363.3 449L372.3 526L385.1 467Z" fill="#3a563f" stroke="#3a563f"></path><path d="M418.1 59L371.3 97L432.1 179Z" fill="#4f7658" stroke="#4f7658"></path><path d="M370.1 150L371.3 97L286.3 170Z" fill="#2e4331" stroke="#2e4331"></path><path d="M209.5 349L226.5 416L367.1 401Z" fill="#46694e" stroke="#46694e"></path><path d="M626.5 183L536.7 123L524.9 206Z" fill="#3a563f" stroke="#3a563f"></path><path d="M505.9 130L418.1 59L432.1 179Z" fill="#4b7053" stroke="#4b7053"></path><path d="M288.5 526L372.3 526L363.3 449Z" fill="#2e4331" stroke="#2e4331"></path><path d="M385.1 467L372.3 526L475.9 482Z" fill="#3a563f" stroke="#3a563f"></path><path d="M282.5 75L229.5 160L286.3 170Z" fill="#2e4331" stroke="#2e4331"></path><path d="M286.3 170L229.5 160L275.5 261Z" fill="#46694e" stroke="#46694e"></path><path d="M239.5 267L179.6 273L209.5 349Z" fill="#4b7053" stroke="#4b7053"></path><path d="M151.6 224L179.6 273L239.5 267Z" fill="#3a563f" stroke="#3a563f"></path><path d="M209.5 349L121.6 417L226.5 416Z" fill="#4b7053" stroke="#4b7053"></path><path d="M475.9 482L614.7 427L484.9 432Z" fill="#46694e" stroke="#46694e"></path><path d="M550.7 345L688.5 314L578.7 269Z" fill="#537d5d" stroke="#537d5d"></path><path d="M592.7 542L614.7 427L475.9 482Z" fill="#4f7658" stroke="#4f7658"></path><path d="M458.9 50L418.1 59L505.9 130Z" fill="#2e4331" stroke="#2e4331"></path><path d="M371.3 97L282.5 75L286.3 170Z" fill="#364f3a" stroke="#364f3a"></path><path d="M688.5 314L626.5 183L578.7 269Z" fill="#46694e" stroke="#46694e"></path><path d="M578.7 269L626.5 183L524.9 206Z" fill="#46694e" stroke="#46694e"></path><path d="M226.5 416L288.5 526L363.3 449Z" fill="#364f3a" stroke="#364f3a"></path><path d="M566.7 0L458.9 50L536.7 123Z" fill="#3e5c44" stroke="#3e5c44"></path><path d="M536.7 123L458.9 50L505.9 130Z" fill="#3e5c44" stroke="#3e5c44"></path><path d="M331.3 0L282.5 75L371.3 97Z" fill="#364f3a" stroke="#364f3a"></path><path d="M396.1 0L371.3 97L418.1 59Z" fill="#426249" stroke="#426249"></path><path d="M330.3 600L381.1 566L372.3 526Z" fill="#426249" stroke="#426249"></path><path d="M372.3 526L381.1 566L475.9 482Z" fill="#3a563f" stroke="#3a563f"></path><path d="M229.5 160L151.6 224L239.5 267Z" fill="#3a563f" stroke="#3a563f"></path><path d="M99.8 364L121.6 417L209.5 349Z" fill="#4b7053" stroke="#4b7053"></path><path d="M184.6 151L151.6 224L229.5 160Z" fill="#2e4331" stroke="#2e4331"></path><path d="M282.5 75L184.6 151L229.5 160Z" fill="#426249" stroke="#426249"></path><path d="M614.7 427L688.5 314L550.7 345Z" fill="#324935" stroke="#324935"></path><path d="M633.5 107L594.7 72L536.7 123Z" fill="#537d5d" stroke="#537d5d"></path><path d="M633.5 107L536.7 123L626.5 183Z" fill="#426249" stroke="#426249"></path><path d="M330.3 600L415.1 600L381.1 566Z" fill="#2e4331" stroke="#2e4331"></path><path d="M381.1 566L415.1 600L475.9 482Z" fill="#537d5d" stroke="#537d5d"></path><path d="M712.4 112L633.5 107L626.5 183Z" fill="#2a3d2c" stroke="#2a3d2c"></path><path d="M689.5 436L684.5 419L614.7 427Z" fill="#364f3a" stroke="#364f3a"></path><path d="M614.7 427L684.5 419L688.5 314Z" fill="#46694e" stroke="#46694e"></path><path d="M482.9 0L396.1 0L458.9 50Z" fill="#364f3a" stroke="#364f3a"></path><path d="M458.9 50L396.1 0L418.1 59Z" fill="#2e4331" stroke="#2e4331"></path><path d="M485.9 600L592.7 542L475.9 482Z" fill="#46694e" stroke="#46694e"></path><path d="M99.8 364L209.5 349L179.6 273Z" fill="#46694e" stroke="#46694e"></path><path d="M226.5 416L127.6 489L288.5 526Z" fill="#2e4331" stroke="#2e4331"></path><path d="M288.5 526L330.3 600L372.3 526Z" fill="#3e5c44" stroke="#3e5c44"></path><path d="M221.5 600L330.3 600L288.5 526Z" fill="#3e5c44" stroke="#3e5c44"></path><path d="M415.1 600L485.9 600L475.9 482Z" fill="#2a3d2c" stroke="#2a3d2c"></path><path d="M121.6 417L133.6 453L226.5 416Z" fill="#4b7053" stroke="#4b7053"></path><path d="M396.1 0L331.3 0L371.3 97Z" fill="#2e4331" stroke="#2e4331"></path><path d="M167.6 45L128.8 144L184.6 151Z" fill="#3e5c44" stroke="#3e5c44"></path><path d="M566.7 0L482.9 0L458.9 50Z" fill="#2e4331" stroke="#2e4331"></path><path d="M48.8 289L99.8 364L179.6 273Z" fill="#4b7053" stroke="#4b7053"></path><path d="M76.8 503L127.6 489L133.6 453Z" fill="#46694e" stroke="#46694e"></path><path d="M681.5 551L689.5 436L614.7 427Z" fill="#537d5d" stroke="#537d5d"></path><path d="M739.4 342L739.4 334L688.5 314Z" fill="#364f3a" stroke="#364f3a"></path><path d="M184.6 151L128.8 144L151.6 224Z" fill="#3a563f" stroke="#3a563f"></path><path d="M151.6 224L48.8 289L179.6 273Z" fill="#3a563f" stroke="#3a563f"></path><path d="M167.6 45L184.6 151L282.5 75Z" fill="#3e5c44" stroke="#3e5c44"></path><path d="M739.4 334L726.4 237L688.5 314Z" fill="#426249" stroke="#426249"></path><path d="M688.5 314L726.4 237L626.5 183Z" fill="#4f7658" stroke="#4f7658"></path><path d="M712.4 112L619.5 54L633.5 107Z" fill="#4f7658" stroke="#4f7658"></path><path d="M633.5 107L619.5 54L594.7 72Z" fill="#426249" stroke="#426249"></path><path d="M594.7 72L566.7 0L536.7 123Z" fill="#4b7053" stroke="#4b7053"></path><path d="M739.4 342L688.5 314L684.5 419Z" fill="#3a563f" stroke="#3a563f"></path><path d="M76.8 503L133.6 453L39.8 424Z" fill="#364f3a" stroke="#364f3a"></path><path d="M133.6 453L127.6 489L226.5 416Z" fill="#3a563f" stroke="#3a563f"></path><path d="M785.2 394L739.4 342L684.5 419Z" fill="#4f7658" stroke="#4f7658"></path><path d="M485.9 600L564.7 600L592.7 542Z" fill="#46694e" stroke="#46694e"></path><path d="M592.7 542L681.5 551L614.7 427Z" fill="#324935" stroke="#324935"></path><path d="M726.4 237L724.4 179L626.5 183Z" fill="#364f3a" stroke="#364f3a"></path><path d="M772.2 158L724.4 179L726.4 237Z" fill="#537d5d" stroke="#537d5d"></path><path d="M619.5 54L566.7 0L594.7 72Z" fill="#426249" stroke="#426249"></path><path d="M127.6 489L221.5 600L288.5 526Z" fill="#2a3d2c" stroke="#2a3d2c"></path><path d="M128.8 144L67.8 210L151.6 224Z" fill="#2e4331" stroke="#2e4331"></path><path d="M198.5 0L167.6 45L282.5 75Z" fill="#324935" stroke="#324935"></path><path d="M0 175L0 206L67.8 210Z" fill="#537d5d" stroke="#537d5d"></path><path d="M67.8 210L48.8 289L151.6 224Z" fill="#2a3d2c" stroke="#2a3d2c"></path><path d="M39.8 424L133.6 453L121.6 417Z" fill="#324935" stroke="#324935"></path><path d="M724.4 179L712.4 112L626.5 183Z" fill="#4f7658" stroke="#4f7658"></path><path d="M619.5 54L643.5 0L566.7 0Z" fill="#426249" stroke="#426249"></path><path d="M331.3 0L198.5 0L282.5 75Z" fill="#46694e" stroke="#46694e"></path><path d="M695.5 600L681.5 551L592.7 542Z" fill="#2a3d2c" stroke="#2a3d2c"></path><path d="M783.2 435L785.2 394L684.5 419Z" fill="#3a563f" stroke="#3a563f"></path><path d="M198.5 0L187.6 0L167.6 45Z" fill="#537d5d" stroke="#537d5d"></path><path d="M0 175L67.8 210L128.8 144Z" fill="#324935" stroke="#324935"></path><path d="M681.5 551L738.4 475L689.5 436Z" fill="#324935" stroke="#324935"></path><path d="M712.4 112L643.5 0L619.5 54Z" fill="#3a563f" stroke="#3a563f"></path><path d="M39.8 424L121.6 417L99.8 364Z" fill="#537d5d" stroke="#537d5d"></path><path d="M127.6 489L157.6 600L221.5 600Z" fill="#364f3a" stroke="#364f3a"></path><path d="M0 331L39.8 424L99.8 364Z" fill="#364f3a" stroke="#364f3a"></path><path d="M127.8 600L157.6 600L127.6 489Z" fill="#2e4331" stroke="#2e4331"></path><path d="M783.2 435L684.5 419L689.5 436Z" fill="#426249" stroke="#426249"></path><path d="M739.4 342L806.2 302L739.4 334Z" fill="#324935" stroke="#324935"></path><path d="M854.2 194L772.2 158L726.4 237Z" fill="#426249" stroke="#426249"></path><path d="M724.4 179L772.2 158L712.4 112Z" fill="#2a3d2c" stroke="#2a3d2c"></path><path d="M806.2 302L726.4 237L739.4 334Z" fill="#4b7053" stroke="#4b7053"></path><path d="M712.4 112L781.4 0L643.5 0Z" fill="#426249" stroke="#426249"></path><path d="M738.4 475L783.2 435L689.5 436Z" fill="#4b7053" stroke="#4b7053"></path><path d="M775.4 480L783.2 435L738.4 475Z" fill="#537d5d" stroke="#537d5d"></path><path d="M900 318L806.2 302L900 331Z" fill="#364f3a" stroke="#364f3a"></path><path d="M785.2 394L806.2 302L739.4 342Z" fill="#364f3a" stroke="#364f3a"></path><path d="M48.8 289L0 331L99.8 364Z" fill="#46694e" stroke="#46694e"></path><path d="M0 206L0 329L48.8 289Z" fill="#46694e" stroke="#46694e"></path><path d="M0 329L0 331L48.8 289Z" fill="#324935" stroke="#324935"></path><path d="M76.8 503L127.8 600L127.6 489Z" fill="#4b7053" stroke="#4b7053"></path><path d="M681.5 551L775.4 480L738.4 475Z" fill="#324935" stroke="#324935"></path><path d="M564.7 600L695.5 600L592.7 542Z" fill="#324935" stroke="#324935"></path><path d="M681.5 551L820.2 541L775.4 480Z" fill="#2e4331" stroke="#2e4331"></path><path d="M0 175L128.8 144L33.8 53Z" fill="#426249" stroke="#426249"></path><path d="M67.8 210L0 206L48.8 289Z" fill="#324935" stroke="#324935"></path><path d="M695.5 600L706.4 600L681.5 551Z" fill="#426249" stroke="#426249"></path><path d="M33.8 53L128.8 144L167.6 45Z" fill="#2e4331" stroke="#2e4331"></path><path d="M187.6 0L79.8 0L167.6 45Z" fill="#324935" stroke="#324935"></path><path d="M79.8 0L33.8 53L167.6 45Z" fill="#3a563f" stroke="#3a563f"></path><path d="M0 331L0 494L39.8 424Z" fill="#324935" stroke="#324935"></path><path d="M39.8 424L0 494L76.8 503Z" fill="#4b7053" stroke="#4b7053"></path><path d="M76.8 503L0 600L127.8 600Z" fill="#46694e" stroke="#46694e"></path><path d="M0 494L0 517L76.8 503Z" fill="#46694e" stroke="#46694e"></path><path d="M806.2 302L854.2 194L726.4 237Z" fill="#364f3a" stroke="#364f3a"></path><path d="M772.2 158L830.2 91L712.4 112Z" fill="#3e5c44" stroke="#3e5c44"></path><path d="M900 318L854.2 194L806.2 302Z" fill="#3a563f" stroke="#3a563f"></path><path d="M806.2 302L785.2 394L900 331Z" fill="#3a563f" stroke="#3a563f"></path><path d="M854.2 194L830.2 91L772.2 158Z" fill="#3e5c44" stroke="#3e5c44"></path><path d="M706.4 600L820.2 541L681.5 551Z" fill="#3a563f" stroke="#3a563f"></path><path d="M775.4 480L900 465L783.2 435Z" fill="#364f3a" stroke="#364f3a"></path><path d="M0 0L0 44L33.8 53Z" fill="#2a3d2c" stroke="#2a3d2c"></path><path d="M33.8 53L0 44L0 175Z" fill="#2a3d2c" stroke="#2a3d2c"></path><path d="M830.2 91L781.4 0L712.4 112Z" fill="#4f7658" stroke="#4f7658"></path><path d="M900 331L785.2 394L900 465Z" fill="#4b7053" stroke="#4b7053"></path><path d="M854.2 194L900 106L830.2 91Z" fill="#46694e" stroke="#46694e"></path><path d="M900 465L785.2 394L783.2 435Z" fill="#3a563f" stroke="#3a563f"></path><path d="M706.4 600L806.2 600L820.2 541Z" fill="#4b7053" stroke="#4b7053"></path><path d="M900 484L900 465L775.4 480Z" fill="#3a563f" stroke="#3a563f"></path><path d="M900 0L804.2 0L830.2 91Z" fill="#2a3d2c" stroke="#2a3d2c"></path><path d="M830.2 91L804.2 0L781.4 0Z" fill="#2e4331" stroke="#2e4331"></path><path d="M0 517L0 600L76.8 503Z" fill="#324935" stroke="#324935"></path><path d="M900 318L900 203L854.2 194Z" fill="#4f7658" stroke="#4f7658"></path><path d="M79.8 0L0 0L33.8 53Z" fill="#4f7658" stroke="#4f7658"></path><path d="M900 484L775.4 480L820.2 541Z" fill="#537d5d" stroke="#537d5d"></path><path d="M900 600L900 484L820.2 541Z" fill="#4f7658" stroke="#4f7658"></path><path d="M900 203L900 106L854.2 194Z" fill="#364f3a" stroke="#364f3a"></path><path d="M900 106L900 96L830.2 91Z" fill="#2a3d2c" stroke="#2a3d2c"></path><path d="M806.2 600L900 600L820.2 541Z" fill="#2a3d2c" stroke="#2a3d2c"></path><path d="M900 96L900 0L830.2 91Z" fill="#3a563f" stroke="#3a563f"></path></g></svg>