<?xml version="1.0" standalone="no"?>
<!DOCTYPE svg PUBLIC "-//W3C//DTD SVG 20010904//EN"
 "http://www.w3.org/TR/2001/REC-SVG-20010904/DTD/svg10.dtd">
<svg version="1.0" xmlns="http://www.w3.org/2000/svg"
 width="343.000000pt" height="325.000000pt" viewBox="0 0 343.000000 325.000000"
 preserveAspectRatio="xMidYMid meet">

<g transform="translate(0.000000,325.000000) scale(0.100000,-0.100000)"
fill="#000000" stroke="none">
<path d="M1087 2823 c-3 -5 -10 -28 -17 -53 -6 -25 -18 -52 -26 -61 -8 -9 -18
-49 -24 -90 -11 -90 -13 -1046 -2 -1053 5 -3 73 -8 153 -12 178 -8 181 -10
172 -102 -8 -83 2 -92 105 -92 l73 0 47 51 c26 28 66 70 90 95 l42 44 145 0
144 0 48 41 c112 97 317 308 344 354 l29 50 0 398 c0 384 -1 398 -20 417 -20
20 -33 20 -659 20 -352 0 -642 -3 -644 -7z m1011 -100 c131 -6 144 -8 154 -27
12 -22 21 -592 11 -673 -4 -37 -18 -55 -107 -148 -57 -59 -110 -105 -121 -106
-11 -1 -87 -2 -170 -2 -174 -2 -176 -3 -265 -113 -76 -94 -110 -85 -110 27 0
93 -2 94 -160 86 -121 -7 -130 -6 -140 12 -6 13 -10 177 -10 467 0 402 2 449
17 466 15 17 40 18 387 18 204 0 435 -3 514 -7z"/>
<path d="M1592 2444 c-21 -15 -22 -21 -22 -167 0 -169 8 -200 52 -205 20 -2
31 4 43 22 14 21 16 49 13 181 -3 141 -5 158 -22 171 -25 18 -36 18 -64 -2z"/>
<path d="M1930 2431 c-5 -11 -10 -84 -10 -166 0 -143 1 -146 25 -171 27 -27
59 -26 83 4 15 20 17 304 2 333 -8 14 -21 19 -50 19 -29 0 -42 -5 -50 -19z"/>
<path d="M1448 948 c22 -11 22 -11 22 -269 l0 -258 -22 -4 c-13 -2 27 -4 87
-4 61 0 100 2 88 4 l-23 4 0 270 0 269 -87 -1 c-71 0 -84 -2 -65 -11z"/>
<path d="M1705 950 c3 -5 13 -10 21 -10 12 0 14 -40 14 -255 l0 -256 -22 -9
c-16 -6 10 -9 82 -8 58 0 97 2 88 5 -15 4 -18 17 -18 89 0 52 4 84 11 84 5 0
28 -37 49 -82 34 -74 37 -84 22 -90 -9 -4 28 -7 83 -7 62 0 94 3 85 8 -8 5
-42 64 -75 131 l-60 122 39 34 c22 19 54 38 70 43 25 8 18 9 -42 10 -49 1 -71
-3 -67 -9 4 -6 15 -10 24 -8 10 2 20 0 22 -3 5 -7 -139 -129 -152 -129 -5 0
-9 77 -9 175 l0 175 -86 0 c-54 0 -83 -4 -79 -10z"/>
<path d="M528 833 c-2 -49 -3 -90 -2 -91 1 -2 18 30 37 71 29 62 40 76 67 86
18 6 36 8 39 5 5 -5 5 -118 1 -466 0 -11 -10 -18 -32 -21 -18 -2 29 -5 105 -5
90 -1 136 1 132 8 -3 6 -19 10 -36 10 l-29 0 0 234 c0 129 4 237 9 240 5 3 23
1 40 -5 24 -9 37 -24 60 -72 16 -34 31 -69 34 -77 3 -8 6 27 6 78 l1 92 -214
0 -214 0 -4 -87z"/>
<path d="M1070 747 c-37 -19 -56 -60 -44 -94 8 -23 16 -29 47 -31 21 -2 45 2
53 9 16 13 19 69 4 69 -5 0 -10 11 -10 25 0 21 5 25 29 25 34 0 41 -17 41
-106 l0 -61 -65 -5 c-36 -3 -76 -13 -90 -22 -46 -30 -45 -102 1 -133 33 -21
110 -22 131 -1 14 15 14 16 -3 15 -16 -2 -19 6 -22 51 -3 55 8 82 35 82 11 0
13 -13 11 -57 -4 -68 9 -89 65 -104 27 -7 48 -7 73 1 39 13 54 36 53 77 -1 30
-3 26 -13 -19 -7 -31 -30 -37 -40 -12 -3 9 -6 62 -6 119 0 120 -8 148 -49 170
-37 18 -165 20 -201 2z"/>
<path d="M2263 750 c-39 -16 -65 -69 -60 -120 6 -57 34 -81 126 -109 79 -24
99 -45 75 -79 -12 -17 -25 -22 -63 -22 -56 0 -91 23 -121 78 l-19 37 -1 -64
c0 -54 2 -62 14 -52 11 9 27 8 69 -4 62 -18 124 -10 158 21 29 26 43 88 29
130 -14 42 -41 61 -128 89 -77 25 -95 44 -68 74 13 15 31 21 59 21 32 0 46 -7
78 -39 l39 -39 0 45 c0 38 -2 43 -14 34 -10 -8 -21 -8 -40 -1 -33 12 -103 12
-133 0z"/>
<path d="M2520 750 c0 -5 6 -10 13 -10 9 0 37 -63 74 -162 59 -160 61 -163 92
-166 37 -4 37 -7 8 -74 -29 -65 -51 -88 -83 -88 -27 0 -33 24 -9 34 20 7 19
40 -1 60 -33 34 -104 4 -104 -44 0 -34 44 -70 84 -70 48 0 77 15 102 53 11 18
54 128 95 244 58 168 78 213 92 213 9 0 17 5 17 10 0 6 -23 10 -51 10 -31 0
-48 -4 -44 -10 3 -5 15 -10 25 -10 17 0 16 -9 -17 -107 -20 -60 -39 -112 -43
-116 -6 -7 -80 192 -80 216 0 4 7 7 15 7 8 0 15 5 15 10 0 6 -40 10 -100 10
-60 0 -100 -4 -100 -10z"/>
</g>
</svg>
