<?xml version="1.0" standalone="no"?>
<!DOCTYPE svg PUBLIC "-//W3C//DTD SVG 20010904//EN"
 "http://www.w3.org/TR/2001/REC-SVG-20010904/DTD/svg10.dtd">
<svg version="1.0" xmlns="http://www.w3.org/2000/svg"
 width="462.000000pt" height="430.000000pt" viewBox="0 0 462.000000 430.000000"
 preserveAspectRatio="xMidYMid meet">

<g transform="translate(0.000000,430.000000) scale(0.100000,-0.100000)"
fill="#000000" stroke="none">
<path d="M1232 3610 l-254 -5 -24 -28 c-13 -15 -24 -38 -24 -51 0 -12 -13 -47
-29 -77 -16 -30 -41 -76 -54 -104 -26 -51 -57 -205 -57 -281 0 -24 -4 -46 -10
-49 -5 -3 -10 -21 -10 -40 0 -19 5 -37 10 -40 6 -4 10 -88 10 -220 0 -132 -4
-216 -10 -220 -14 -8 -13 -75 1 -75 8 0 9 -64 6 -222 -3 -123 -6 -454 -6 -737
-1 -302 -5 -518 -10 -525 -16 -19 13 -45 65 -61 38 -11 108 -15 307 -15 353 0
340 8 347 -214 l5 -151 35 -12 c22 -7 103 -12 213 -12 198 -1 227 6 245 58 6
17 28 42 51 57 23 15 57 49 76 75 19 27 50 58 68 70 18 12 46 40 61 62 47 64
62 67 358 67 317 0 338 5 413 83 28 28 95 95 150 148 55 52 116 113 136 135
19 21 106 107 192 191 119 114 169 171 207 232 28 44 50 91 50 104 0 13 9 32
20 42 20 18 20 28 19 892 -2 795 -3 875 -18 880 -9 3 -38 14 -64 25 -47 19
-81 19 -1135 21 -598 1 -1201 0 -1340 -3z m2168 -299 c46 -33 48 -65 52 -779
l3 -667 -23 -47 c-14 -28 -66 -88 -130 -152 -59 -58 -134 -135 -167 -171 -33
-36 -80 -80 -105 -97 l-45 -33 -335 -5 c-294 -4 -339 -7 -367 -22 -17 -10 -34
-22 -38 -28 -3 -5 -30 -26 -60 -46 -30 -20 -55 -40 -55 -44 0 -19 -202 -211
-218 -208 -28 5 -50 67 -62 173 -13 116 -23 148 -53 163 -14 7 -117 12 -275
14 l-254 3 -29 33 -29 32 -1 853 c-1 968 -2 865 6 939 8 74 27 97 90 107 28 5
505 7 1060 4 941 -5 1012 -6 1035 -22z"/>
<path d="M2028 2788 c-17 -14 -31 -40 -37 -68 -6 -25 -11 -176 -11 -336 l0
-290 26 -52 c32 -65 52 -76 120 -69 68 7 71 9 100 71 23 50 24 57 24 321 0
149 -5 299 -10 334 -12 87 -29 102 -117 108 -60 4 -71 2 -95 -19z"/>
<path d="M2829 2800 c-92 -25 -99 -55 -99 -415 l0 -282 30 -45 c17 -26 47 -58
66 -73 32 -24 37 -26 52 -12 9 9 30 19 45 22 27 7 67 51 81 90 11 31 7 584 -5
627 -5 21 -19 46 -30 57 -24 22 -105 40 -140 31z"/>
</g>
</svg>
